<svg width="255" height="84" viewBox="0 0 255 84" fill="none" xmlns="http://www.w3.org/2000/svg">
<path d="M137 65.5V82.5H171.5L173.5 76.5L191 80L228 82.5L253 78V70.5L249.5 61.5L245.5 54H230.5L214.5 49L193 31.5L186 1.99998L177.5 6.99998L173.5 9.99998L156 15.5H142L140.5 18.5L139 61.5L137 65.5Z" fill="gray"/>
<path d="M253.498 67.6261C253.309 67.4796 253.107 67.3577 252.9 67.2501L252.002 60.9598C251.308 56.1068 247.122 52.4648 242.251 52.4648C242.231 52.4648 242.211 52.4648 242.192 52.4648C235.341 52.5098 225.139 51.8576 214.815 48.6159C215.066 47.8807 214.84 47.0477 214.211 46.5452L194.704 30.9394L188.826 1.54803C188.65 0.669595 187.879 0.0377197 186.983 0.0377197C186.697 0.0377197 179.913 0.115532 175.399 6.88709C175.301 7.03358 175.229 7.18944 175.177 7.34928C174.349 7.28858 173.504 7.34624 172.678 7.56467C168.382 8.70163 154.787 13.3406 154.787 13.3406C153.341 13.8223 151.834 14.0669 150.31 14.0669H144.896C140.544 14.0669 137.004 17.6072 137.004 21.9583V62.6674C136.698 62.8394 136.411 63.0516 136.154 63.3063C135.41 64.0434 135 65.0241 135 66.0668V80.0791C135 82.2204 136.742 83.9623 138.883 83.9623H170.95C173.091 83.9623 174.833 82.2204 174.833 80.0791V79.1435C176.97 79.4613 179.092 79.7869 181.162 80.1044C194.089 82.0884 206.3 83.9623 221.054 83.9623C237.158 83.9623 248.172 81.413 252.16 80.317C253.832 79.8576 255 78.3192 255 76.5762V70.7006C255 69.488 254.452 68.3674 253.498 67.6261ZM242.214 56.2228C242.227 56.2228 242.239 56.2228 242.251 56.2228C245.262 56.2228 247.851 58.4817 248.281 61.4913L249.097 67.2014C243.999 68.4234 234.347 70.1836 221.054 70.1836C206.604 70.1836 194.55 68.3323 181.787 66.3722C180.489 66.1727 179.186 65.9728 177.876 65.7743C181.714 62.2533 190.221 56.7253 204.044 59.2802C206.427 59.7206 208.871 58.609 210.127 56.5151L212.873 51.9387C223.937 55.552 234.915 56.2655 242.214 56.2228ZM185.486 4.00944L190.142 27.2899L184.644 22.8916L182.248 13.3064C181.752 11.325 180.536 9.64756 178.818 8.55842C181.032 5.49256 183.806 4.39686 185.486 4.00944ZM140.762 21.9583C140.762 19.679 142.616 17.8247 144.896 17.8247H150.311C152.239 17.8247 154.145 17.5155 155.975 16.9055L169.525 12.3888L171.198 20.7546C171.56 22.5649 171.096 24.4221 169.926 25.8497C168.755 27.2775 167.025 28.0962 165.179 28.0962H150.908C146.909 28.0962 143.301 29.7956 140.762 32.5078V21.9583ZM140.762 42C140.762 36.4052 145.314 31.8539 150.908 31.8539H165.18C168.156 31.8539 170.945 30.5337 172.832 28.2319C174.719 25.9301 175.466 22.9362 174.883 20.0175L173.144 11.3215L173.59 11.2099C174.66 10.9423 175.772 11.1077 176.719 11.6756C177.665 12.2437 178.334 13.1463 178.602 14.2174L181.152 24.4179C181.252 24.817 181.48 25.1723 181.802 25.4294L189.07 31.2441L185.655 34.6587C184.921 35.3925 184.921 36.5822 185.655 37.3158C186.022 37.6826 186.503 37.8661 186.984 37.8661C187.464 37.8661 187.946 37.6828 188.312 37.3158L192.022 33.6058L194.266 35.4009L190.999 38.6672C190.266 39.401 190.266 40.5907 190.999 41.3243C191.366 41.6911 191.847 41.8746 192.328 41.8746C192.809 41.8746 193.29 41.6913 193.656 41.3243L197.218 37.763L199.461 39.558L196.344 42.6757C195.61 43.4095 195.61 44.5992 196.344 45.3328C196.71 45.6996 197.191 45.8831 197.672 45.8831C198.153 45.8831 198.634 45.6998 199.001 45.3328L202.414 41.9196L204.657 43.7147L201.688 46.6842C200.954 47.418 200.954 48.6077 201.688 49.3413C202.055 49.7081 202.536 49.8916 203.016 49.8916C203.497 49.8916 203.978 49.7083 204.345 49.3413L207.609 46.0767L210.581 48.4542L206.904 54.5819C206.45 55.3387 205.576 55.7419 204.727 55.5853C200.021 54.7155 183.871 52.8377 173.299 65.0934C163.416 63.6593 152.952 62.4246 140.762 62.2036L140.762 42ZM251.242 76.5764C251.242 76.6338 251.211 76.6809 251.164 76.6936C247.324 77.7492 236.701 80.2048 221.055 80.2048C206.588 80.2048 194.514 78.3518 181.732 76.3905C178.963 75.9654 176.099 75.5259 173.224 75.1092C173.134 75.0961 173.044 75.0898 172.954 75.0898C172.506 75.0898 172.069 75.2505 171.725 75.548C171.313 75.9047 171.075 76.4234 171.075 76.9687V80.0796C171.075 80.1487 171.019 80.2048 170.95 80.2048H138.883C138.814 80.2048 138.758 80.1487 138.758 80.0796V66.0673C138.758 66.034 138.772 66.0033 138.799 65.9761C138.828 65.948 138.863 65.9358 138.894 65.9346C155.195 66.0905 168.424 68.122 181.217 70.0868C194.125 72.0694 206.318 73.942 221.054 73.942C235.757 73.942 246.191 71.8336 251.102 70.5771C251.121 70.5722 251.153 70.564 251.193 70.5949C251.242 70.6329 251.242 70.6826 251.242 70.7013L251.242 76.5764Z" fill="black"/>
<path d="M118 65.5V82.5H83.5L81.5 76.5L64 80L27 82.5L2.00001 78V70.5L5.50001 61.5L9.50001 54H24.5L40.5 49L62 31.5L69 1.99998L77.5 6.99998L81.5 9.99998L99 15.5H113L114.5 18.5L116 61.5L118 65.5Z" fill="gray"/>
<path d="M1.50235 67.6261C1.69126 67.4796 1.89259 67.3577 2.09978 67.2501L2.99837 60.9598C3.69188 56.1068 7.87782 52.4648 12.7493 52.4648C12.7688 52.4648 12.7887 52.4648 12.8079 52.4648C19.6591 52.5098 29.8615 51.8576 40.1845 48.6159C39.9345 47.8807 40.1604 47.0477 40.7885 46.5452L60.2956 30.9394L66.1744 1.54803C66.3499 0.669595 67.121 0.0377197 68.0168 0.0377197C68.3034 0.0377197 75.0867 0.115532 79.601 6.88709C79.6988 7.03358 79.7714 7.18944 79.8232 7.34928C80.6515 7.28858 81.4959 7.34624 82.3219 7.56467C86.6177 8.70163 100.213 13.3406 100.213 13.3406C101.659 13.8223 103.166 14.0669 104.69 14.0669H110.104C114.456 14.0669 117.996 17.6072 117.996 21.9583V62.6674C118.302 62.8394 118.589 63.0516 118.846 63.3063C119.59 64.0434 120 65.0241 120 66.0668V80.0791C120 82.2204 118.258 83.9623 116.117 83.9623H84.0502C81.9089 83.9623 80.167 82.2204 80.167 80.0791V79.1435C78.0298 79.4613 75.9077 79.7869 73.8382 80.1044C60.9106 82.0884 48.6996 83.9623 33.9459 83.9623C17.842 83.9623 6.82806 81.413 2.83993 80.317C1.1679 79.8576 0.000244216 78.3192 0.000244216 76.5762V70.7006C9.8408e-06 69.488 0.547743 68.3674 1.50235 67.6261ZM12.7856 56.2228C12.7734 56.2228 12.7615 56.2228 12.7493 56.2228C9.73782 56.2228 7.14868 58.4817 6.71883 61.4913L5.90321 67.2014C11.0013 68.4234 20.6531 70.1836 33.9459 70.1836C48.3959 70.1836 60.4505 68.3323 73.2129 66.3722C74.5111 66.1727 75.814 65.9728 77.1237 65.7743C73.2858 62.2533 64.7794 56.7253 50.9559 59.2802C48.5733 59.7206 46.1295 58.609 44.873 56.5151L42.1273 51.9387C31.0629 55.552 20.0855 56.2655 12.7856 56.2228ZM69.5142 4.00944L64.8581 27.2899L70.3561 22.8916L72.7523 13.3064C73.2476 11.325 74.4635 9.64756 76.1822 8.55842C73.9676 5.49256 71.1942 4.39686 69.5142 4.00944ZM114.238 21.9583C114.238 19.679 112.384 17.8247 110.104 17.8247H104.689C102.761 17.8247 100.855 17.5155 99.0251 16.9055L85.4752 12.3888L83.8022 20.7546C83.4401 22.5649 83.9037 24.4221 85.0742 25.8497C86.2446 27.2775 87.9748 28.0962 89.8207 28.0962H104.092C108.091 28.0962 111.699 29.7956 114.238 32.5078V21.9583ZM114.238 42C114.238 36.4052 109.686 31.8539 104.092 31.8539H89.8205C86.8439 31.8539 84.0546 30.5337 82.1679 28.2319C80.2812 25.9301 79.5335 22.9362 80.1171 20.0175L81.8562 11.3215L81.4104 11.2099C80.3398 10.9423 79.2279 11.1077 78.2813 11.6756C77.3346 12.2437 76.6657 13.1463 76.3976 14.2174L73.8476 24.4179C73.748 24.817 73.5199 25.1723 73.1984 25.4294L65.9302 31.2441L69.3448 34.6587C70.0786 35.3925 70.0786 36.5822 69.3448 37.3158C68.978 37.6826 68.497 37.8661 68.0163 37.8661C67.5356 37.8661 67.0545 37.6828 66.6879 37.3158L62.978 33.6058L60.7343 35.4009L64.0006 38.6672C64.7344 39.401 64.7344 40.5907 64.0006 41.3243C63.6338 41.6911 63.1528 41.8746 62.6721 41.8746C62.1914 41.8746 61.7102 41.6913 61.3437 41.3243L57.7824 37.763L55.5387 39.558L58.6563 42.6757C59.3902 43.4095 59.3902 44.5992 58.6563 45.3328C58.2895 45.6996 57.8086 45.8831 57.3279 45.8831C56.8472 45.8831 56.3663 45.6998 55.9995 45.3328L52.5863 41.9196L50.3426 43.7147L53.3121 46.6842C54.0459 47.418 54.0459 48.6077 53.3121 49.3413C52.9453 49.7081 52.4644 49.8916 51.9837 49.8916C51.503 49.8916 51.022 49.7083 50.6552 49.3413L47.3906 46.0767L44.419 48.4542L48.0956 54.5819C48.5499 55.3387 49.4243 55.7419 50.2734 55.5853C54.9788 54.7155 71.1293 52.8377 81.701 65.0934C91.5844 63.6593 102.048 62.4246 114.238 62.2036L114.238 42ZM3.75774 76.5764C3.75774 76.6338 3.78915 76.6809 3.83555 76.6936C7.67649 77.7492 18.2991 80.2048 33.9455 80.2048C48.4125 80.2048 60.4859 78.3518 73.268 76.3905C76.0373 75.9654 78.9007 75.5259 81.776 75.1092C81.866 75.0961 81.9558 75.0898 82.0456 75.0898C82.4941 75.0898 82.9315 75.2505 83.2751 75.548C83.6874 75.9047 83.9245 76.4234 83.9245 76.9687V80.0796C83.9245 80.1487 83.9806 80.2048 84.0497 80.2048H116.117C116.186 80.2048 116.242 80.1487 116.242 80.0796V66.0673C116.242 66.034 116.228 66.0033 116.201 65.9761C116.172 65.948 116.138 65.9358 116.106 65.9346C99.8046 66.0905 86.5758 68.122 73.7829 70.0868C60.8747 72.0694 48.6823 73.942 33.9457 73.942C19.2434 73.942 8.809 71.8336 3.8979 70.5771C3.87868 70.5722 3.84681 70.564 3.80696 70.5949C3.75798 70.6329 3.75798 70.6826 3.75798 70.7013L3.75774 76.5764Z" fill="black"/>
</svg>
