<svg width="107" height="241" viewBox="0 0 107 241" fill="none" xmlns="http://www.w3.org/2000/svg">
<path d="M3.00002 42.5L8.50002 3.5L99.5 2L104 34V73L100.5 238.5H63L59 92L54.5 71L50 87L45 238.5H8.50002L5.00002 145.5L3.00002 42.5Z" fill="gray"/>
<path d="M106.794 58.8647C106.245 11.3325 102.35 2.49708 102.252 2.12189C101.922 0.871643 100.793 0 99.4993 0H7.50247C6.20952 0 5.07884 0.871643 4.74976 2.12189C4.64558 2.51758 2.17582 12.351 0.206513 58.8641C0.204236 58.925 4.19011 238.216 4.19011 238.216C4.22427 239.763 5.48818 240.999 7.03562 240.999H44.8158C46.3569 240.999 47.618 239.773 47.6613 238.233L51.6454 96.6909C51.7758 93.5033 52.3172 86.4846 53.5003 80.3546C54.6839 86.4812 55.2248 93.4913 55.354 96.6551L59.3393 238.233C59.3826 239.773 60.6437 240.999 62.1849 240.999H99.965C101.512 240.999 102.776 239.763 102.811 238.216C102.811 238.217 106.795 58.9256 106.794 58.8647ZM9.85722 5.6933H30.5091V10.8526H9.15637C9.43364 8.50009 9.67333 6.83025 9.85722 5.6933ZM8.55289 16.5459H16.8714C16.4797 22.308 14.8622 26.5791 12.0355 29.2521C10.4527 30.7489 8.73677 31.501 7.33622 31.8819C7.76151 25.4957 8.17599 20.4714 8.55289 16.5459ZM50.6537 69.9501C46.7321 78.3636 45.9874 95.7083 45.9556 96.4951L42.0482 235.306H9.81964L5.89811 59.0133C6.24597 50.8144 6.60749 43.7843 6.96616 37.7602C9.32774 37.3919 12.7591 36.3517 15.8397 33.4891C19.8706 29.7429 22.1217 24.0451 22.5692 16.5453H30.5085V16.999C30.5085 18.571 31.7827 19.8457 33.3551 19.8457C34.9276 19.8457 36.2018 18.571 36.2018 16.999V16.5453H50.6531L50.6537 69.9501ZM50.6537 10.8526H36.2024V5.6933H50.6537V10.8526ZM99.8432 31.8864C98.4568 31.5141 96.7489 30.778 95.1786 29.3188C92.3075 26.6503 90.6627 22.3593 90.2682 16.5453H98.8651C99.1617 20.1412 99.4782 25.0249 99.8432 31.8864ZM76.4904 5.6933H97.3153C97.6621 7.02439 97.9735 8.43006 98.2872 10.8526H76.4904V5.6933ZM70.7971 5.6933V10.8526H61.0502C61.3565 10.7125 61.6411 10.5258 61.8808 10.2832C62.4103 9.75375 62.7121 9.02501 62.7121 8.2735C62.7121 7.52198 62.4103 6.78755 61.8808 6.25807C61.6411 6.01838 61.3559 5.83278 61.0496 5.6933H70.7971ZM56.347 5.6933H58.6863C58.3806 5.83278 58.0948 6.01838 57.8551 6.25807C57.3256 6.78755 57.0182 7.52198 57.0182 8.2735C57.0182 9.02501 57.3256 9.75375 57.8551 10.2832C58.0948 10.5252 58.38 10.7119 58.6852 10.8526H56.347V5.6933ZM59.1993 16.5459V43.3459C59.1993 48.5154 57.7765 51.0603 56.347 52.3145V16.5459H59.1993ZM97.181 235.307H64.9524L61.0439 96.4604C61.0132 95.7071 60.2685 78.3636 56.347 69.9501V58.7258C57.6234 58.3102 59.1486 57.5512 60.5788 56.1524C63.4414 53.3524 64.8926 49.0443 64.8926 43.3459V16.5459H70.7971V16.9996C70.7971 18.5715 72.0713 19.8463 73.6437 19.8463C75.2162 19.8463 76.4904 18.5715 76.4904 16.9996V16.5459H84.5669C85.0138 24.0479 87.2712 29.7429 91.3032 33.4897C94.3736 36.3426 97.785 37.3822 100.142 37.7539C100.429 43.589 100.746 50.5815 101.103 59.0138L97.181 235.307Z" fill="black"/>
</svg>
