<svg width="170" height="184" viewBox="0 0 170 184" fill="none" xmlns="http://www.w3.org/2000/svg">
<path d="M38 88V179L98.5 182L133.5 179V88L167.5 72L163.5 64.5L144 26L135.5 19.5L113.5 11L102 0.999998H67.5L64 5.5L54.5 11L27.5 24L2.49997 74L38 88Z" fill="gray"/>
<path d="M90.8035 52.9889C90.2143 52.9889 89.6424 52.7483 89.2232 52.3331C88.8081 51.9224 88.5715 51.3461 88.5715 50.7568C88.5715 50.168 88.8081 49.5922 89.2232 49.177C89.6384 48.7618 90.2143 48.5248 90.8035 48.5248C91.3923 48.5248 91.9682 48.7618 92.3793 49.177C92.7985 49.5962 93.0356 50.168 93.0356 50.7568C93.0356 51.3421 92.799 51.9179 92.3793 52.3331C91.9637 52.7483 91.3923 52.9889 90.8035 52.9889Z M169.323 71.2712L146.524 26.107C145.75 23.5365 142.782 19.4827 127.939 13.4115C121.311 10.7009 114.948 8.67062 112.72 7.98271C110.935 5.2288 108.172 2.6923 104.41 0.339718L104.398 0.343736C104.058 0.129459 103.659 0 103.227 0H66.7737C66.3403 0 65.9403 0.127227 65.6001 0.342843L65.5907 0.339718C61.8275 2.6923 59.0651 5.2288 57.2813 7.98226C55.0537 8.67062 48.6892 10.7005 42.0609 13.4115C27.2173 19.4827 24.25 23.537 23.476 26.1074L0.677787 71.2716C0.408155 71.8055 0.364408 72.4256 0.555917 72.9925C0.747427 73.5595 1.15857 74.0251 1.6965 74.2858L34.2072 90.0467V179.353C34.2072 180.297 34.8009 181.14 35.6902 181.456C36.4218 181.717 44.0184 184 84.9971 184.001H85.0029C125.983 184 133.579 181.717 134.311 181.456C135.2 181.14 135.794 180.297 135.794 179.353V90.0458L168.304 74.2849C168.842 74.0237 169.253 73.5581 169.444 72.9916C169.636 72.4251 169.592 71.8051 169.323 71.2712ZM144.553 32.1067L161.002 64.6929L135.794 77.0249V66.1044C135.794 54.2027 141.493 39.2667 144.553 32.1067ZM104.338 5.68682C109.204 9.31658 111.202 13.2044 110.6 17.7752C109.946 22.7473 107.115 34.3647 105.906 39.2131L93.286 35.8597L104.338 5.68682ZM88.351 36.3561L85.0002 41.2278L81.6508 36.3565L72.3838 11.0576H97.6166L88.351 36.3561ZM100.032 4.4641L99.2523 6.59348H70.7486L69.9687 4.4641H100.032ZM65.6617 5.68682L76.7144 35.8597L64.0939 39.2131C62.885 34.3642 60.0539 22.7477 59.3995 17.7752C58.7982 13.2044 60.7972 9.31658 65.6617 5.68682ZM34.2068 85.0849L5.68428 71.2573L6.98601 68.6784L34.2068 81.9948V85.0849ZM34.2068 77.0249L8.99798 64.6929L25.4482 32.1054C28.5079 39.2613 34.2068 54.1902 34.2068 66.104V77.0249ZM131.33 66.1044V177.561C127.656 178.198 116.22 179.536 85.0002 179.536C53.781 179.536 42.3439 178.198 38.6713 177.561V66.1044C38.6713 50.6184 30.065 31.2666 27.9981 26.8422C30.152 23.1441 42.664 17.431 55.0894 13.3544C54.784 14.9543 54.7456 16.6199 54.9742 18.3573C55.842 24.9543 60.136 41.7902 60.3191 42.504C60.4664 43.0808 60.8383 43.575 61.3521 43.8768C61.6971 44.079 62.4319 44.3058 63.0547 44.1089L78.7045 39.951L82.7659 45.857V64.1246C82.7659 65.3571 83.765 66.3566 84.998 66.3566C86.231 66.3566 87.23 65.3571 87.23 64.1246V45.8651L91.2977 39.951L106.947 44.1089C107.136 44.1584 108.027 44.3312 108.649 43.8768C109.259 43.4317 109.535 43.0813 109.683 42.504C109.865 41.7902 114.16 24.9543 115.028 18.3577C115.257 16.6199 115.218 14.9534 114.912 13.353C127.338 17.4283 139.85 23.1423 142.003 26.8422C139.935 31.2661 131.33 50.618 131.33 66.1044ZM135.794 85.0849V81.9948L163.014 68.6784L164.316 71.2573L135.794 85.0849Z" fill="black"/>
</svg>
