<svg width="50" height="50" viewBox="0 0 110 219" fill="none" xmlns="http://www.w3.org/2000/svg">
<path d="M3.00001 45.5V118H47.5V92L50.5 75L53.5 72L57.5 92L58.5 118L102.5 116.5C102.5 103.833 102.7 78.2 103.5 77C104.3 75.8 103.167 54.5 102.5 44L98.5 1.5H6.50001L3.00001 45.5Z" fill="gray"/>
<path d="M104.782 57.9144C102.813 11.4042 100.368 1.66192 100.264 1.27012C100.067 0.521607 99.3911 0 98.6171 0H6.38292C5.6092 0 4.93258 0.521607 4.73565 1.27012C4.63242 1.66192 2.1869 11.4045 0.218012 57.9144C0.21699 57.9382 0.216309 117.297 0.216309 117.297C0.216309 118.238 0.978788 119 1.91979 119H47.7888C48.7298 119 49.4923 118.238 49.4923 117.297V95.7103C49.5247 94.9778 50.1083 82.5229 52.5 74.3816C54.8914 82.5229 55.4746 94.9774 55.507 95.7103V117.297C55.507 118.238 56.2695 119 57.2105 119H103.08C104.021 119 104.784 118.238 104.784 117.297C104.784 117.297 104.783 57.9382 104.782 57.9144ZM7.78046 3.40697H30.6V10.8805H6.76791C7.20196 6.9986 7.55867 4.67266 7.78046 3.40697ZM6.40882 14.2875H13.0146C12.6977 31.8501 7.5079 37.8167 4.51761 39.7989C5.17379 28.2336 5.83781 20.0231 6.40882 14.2875ZM3.62328 115.593V110.074H46.0854V115.593H3.62328ZM50.7965 69.2385C46.8686 77.3498 46.0854 95.6507 46.0854 95.6738V106.667H3.62328V58.0221C3.84371 52.8104 4.07095 48.0672 4.30058 43.7448C7.72459 42.4481 16.0243 36.9653 16.4212 14.2871H30.6V15.8925C30.6 16.8332 31.3625 17.596 32.3035 17.596C33.2445 17.596 34.007 16.8332 34.007 15.8925V14.2871H50.7962L50.7965 69.2385ZM50.7965 10.8805H34.0073V3.40697H50.7965V10.8805ZM100.484 39.7982C97.4948 37.815 92.3043 31.8487 91.9878 14.2871H98.5994C99.1683 20.0112 99.8286 28.2141 100.484 39.7982ZM74.399 3.40697H97.2233C97.4468 4.66687 97.8045 6.98599 98.2403 10.8805H74.3986L74.399 3.40697ZM54.2035 3.40697H70.992V10.8805H54.2035V3.40697ZM54.2035 14.2875H59.3633V42.3071C59.3633 50.0634 56.2327 52.5229 54.2035 53.3034V14.2875ZM54.2035 69.2385V56.849C55.4572 56.5567 57.1968 55.8838 58.792 54.3238C61.4321 51.7413 62.7706 47.6983 62.7706 42.3071V14.2875H70.9923V15.8928C70.9923 16.8335 71.7548 17.5963 72.6958 17.5963C73.6368 17.5963 74.3993 16.8335 74.3993 15.8928V14.2875H88.5801C88.9774 36.9683 97.2785 42.4488 100.7 43.7448C100.929 48.0659 101.156 52.8087 101.377 58.0224V106.667H58.914C58.914 106.667 58.9136 95.6282 58.9126 95.6047C58.8819 94.8517 58.1307 77.3495 54.2035 69.2385ZM58.914 115.593V110.074H101.377V115.593H58.914Z" fill="black"/>
<path d="M58.2544 8.84858C57.8084 8.84858 57.3686 8.66461 57.0517 8.34776C56.7349 8.03091 56.5543 7.59141 56.5543 7.14169C56.5543 6.69538 56.7349 6.25588 57.0517 5.93903C57.3689 5.62218 57.8084 5.44161 58.2544 5.44161C58.7041 5.44161 59.1436 5.62218 59.4604 5.93903C59.7773 6.25588 59.9579 6.69538 59.9579 7.14169C59.9579 7.59141 59.7773 8.03091 59.4604 8.34776C59.1436 8.66495 58.7041 8.84858 58.2544 8.84858Z" fill="black"/>
</svg>
