<svg width="255" height="84" viewBox="0 0 220 84" fill="none" xmlns="http://www.w3.org/2000/svg">
<path d="M100.2 58.2V71.4L30 70.8L16.8 69.6L4.80002 65.4L3.00002 58.2L6.00002 52.2L9.60002 49.8L16.8 48H25.2L30.6 46.2L31.8 51L36 54L40.2 55.2H44.4L76.2 40.8L80.4 42.6L90 40.8L96 38.4L100.2 58.2Z" fill="gray"/>
<path d="M65.4 35.4L75 41.4L64.2 46.8L45.6 55.2H37.8L32.4 50.4L30.6 46.2L61.8 30L65.4 35.4Z" fill="gray"/>
<path d="M30.6 46.2L31.8 51L36 54L40.2 55.2H44.4L76.2 40.8L80.4 42.6L90 40.8L96 38.4L100.2 58.2V71.4L30 70.8L16.8 69.6L4.80002 65.4L3.00002 58.2L6.00002 52.2L9.60002 49.8L16.8 48H25.2L30.6 46.2ZM30.6 46.2L61.8 30L65.4 35.4L75 41.4L64.2 46.8L45.6 55.2H37.8L32.4 50.4L30.6 46.2Z" stroke="black"/>
<path d="M90.1263 48.7765C89.1895 48.7765 88.4301 48.017 88.4301 47.0803C88.4301 46.1435 89.1895 45.3841 90.1263 45.3841C91.0631 45.3841 91.8225 46.1435 91.8225 47.0803C91.8225 48.017 91.0631 48.7765 90.1263 48.7765Z" fill="black"/>
<path d="M91.8225 55.5616C90.8857 55.5616 90.1263 54.8022 90.1263 53.8654C90.1263 52.9286 90.8857 52.1692 91.8225 52.1692C92.7592 52.1692 93.5187 52.9286 93.5187 53.8654C93.5187 54.8022 92.7592 55.5616 91.8225 55.5616Z" fill="black"/>
<path d="M3.10832 51.4906C5.65271 47.7589 12.9465 46.0625 24.99 46.4018L60.9505 29.4393C61.7987 29.1 62.6467 29.4393 63.1556 30.1178C63.4949 30.966 74.6902 47.9285 95.0453 36.0547C95.5542 35.8852 96.063 35.8852 96.5719 36.0547C97.0808 36.2243 97.4201 36.7332 97.5897 37.242C98.9467 44.7056 101.322 57.0882 101.83 58.4453C102 58.9542 102 59.4631 101.83 59.9719C101.491 60.3113 100.982 60.6504 100.473 60.6504C95.5542 60.9897 69.7712 62.8554 45.854 62.8554C25.6685 62.8554 6.67046 61.4984 2.76901 56.7489C2.59945 56.5794 2.42969 56.4096 2.42969 56.24C2.26013 55.9009 1.58169 53.8654 3.10832 51.4906ZM98.0985 57.4276C97.2503 53.3565 95.5542 44.5361 94.706 40.2953C78.2523 48.6069 66.0393 40.1257 61.1201 33.3406L26.1773 49.7944C25.838 49.964 25.6685 49.964 25.3292 49.964C10.5717 49.4551 6.84002 52.3388 5.99183 53.5261C5.48295 54.035 5.48295 54.5439 5.48295 54.8832C12.0984 61.1593 64.6824 59.8022 98.0985 57.4276Z" fill="black"/>
<path d="M0.563933 57.0882L2.26012 53.1868C2.59944 52.5084 3.27787 52.169 3.95631 52.169C4.97406 52.169 5.6525 52.8475 5.6525 53.8652C5.6525 54.2045 5.6525 54.5437 5.48294 54.7134L3.95631 58.2756C3.27787 60.1415 3.78675 62.3466 5.31338 63.3643C8.36664 65.3998 15.9998 69.1315 32.9623 69.1315C56.3706 69.1315 90.6349 69.1315 98.6074 69.1315V58.954C98.6074 57.9362 99.2859 57.2578 100.304 57.2578C101.321 57.2578 102 57.9364 102 58.9542V70.8279C102 71.3368 101.83 71.6761 101.491 72.0152C101.152 72.3544 100.813 72.5241 100.304 72.5241C100.304 72.5241 59.5937 72.5241 32.6232 72.6937C15.6607 72.6937 7.17933 69.1315 3.10831 66.2478C0.394169 64.2125 -0.793138 60.4808 0.563933 57.0882Z" fill="black"/>
<path d="M25.1596 46.5714C26.0078 46.4018 26.8558 47.0803 27.0255 47.9285L29.061 60.3111C29.061 60.3111 29.061 60.4806 29.061 60.6504C29.061 61.6681 28.3826 62.3466 27.3649 62.3466C26.5167 62.3466 25.8382 61.6681 25.6687 60.82L23.8027 48.4373C23.633 47.5891 24.3114 46.7412 25.1596 46.5714Z" fill="black"/>
<path d="M53.6567 30.2873C54.5049 29.7784 55.5226 30.1178 55.8618 30.9658L60.9505 39.4471C61.4594 40.2953 61.2898 41.3131 60.4417 41.8219C60.2721 41.9915 59.9328 41.9915 59.5935 41.9915C59.0846 41.9915 58.4061 41.6522 58.0668 41.1433L52.9781 32.662C52.6389 31.814 52.8085 30.7962 53.6567 30.2873Z" fill="black"/>
<path d="M46.8717 33.6799C47.7199 33.171 48.7377 33.5103 49.0768 34.3583L54.1656 42.8397C54.6744 43.6879 54.5049 44.7056 53.6567 45.2145C53.4871 45.3841 53.1478 45.3841 52.8085 45.3841C52.2996 45.3841 51.6212 45.0448 51.2819 44.5359L46.1931 36.0545C45.854 35.2065 46.0235 34.1888 46.8717 33.6799Z" fill="black"/>
<path d="M40.0866 37.0725C40.9348 36.5636 41.9525 36.9029 42.2916 37.7509L47.3804 46.2323C47.8893 47.0805 47.7197 48.0982 46.8715 48.6071C46.702 48.7767 46.3627 48.7767 46.0233 48.7767C45.5145 48.7767 44.836 48.4373 44.4967 47.9285L39.4079 39.4471C39.0688 38.5991 39.2386 37.5814 40.0866 37.0725Z" fill="black"/>
<path d="M33.3016 40.4649C34.1498 39.956 35.1676 40.2953 35.5067 41.1433L40.5955 49.6246C41.1043 50.4728 40.9348 51.4906 40.0866 51.9995C39.917 52.169 39.5777 52.169 39.2384 52.169C38.7295 52.169 38.0511 51.8297 37.7117 51.3208L32.623 42.8395C32.2839 41.9915 32.4534 40.9737 33.3016 40.4649Z" fill="black"/>
<path d="M95.7239 35.885C97.081 35.7154 98.6076 34.6977 98.6076 32.8317C98.6076 31.814 99.2861 31.1355 100.304 31.1355C101.322 31.1355 102 31.814 102 32.8317C102 36.0545 99.6252 38.5989 96.4024 39.2775C96.2328 39.2775 96.2328 39.2775 96.063 39.2775C95.2148 39.2775 94.5364 38.5991 94.3668 37.9205C94.1973 36.9027 94.8757 36.0547 95.7239 35.885Z" fill="black"/>
<path d="M29.4002 44.5359C30.2484 44.1966 31.2661 44.5359 31.6052 45.3841L32.9623 48.4373C34.9978 53.0172 40.2561 55.2223 44.836 53.1868L75.5382 39.956C76.3864 39.6167 77.4041 39.956 77.7433 40.8042C78.0824 41.6524 77.7433 42.6701 76.8951 43.0092L46.1929 56.24C44.6663 56.9185 42.9701 57.2578 41.2737 57.2578C36.5242 57.2578 31.9443 54.5439 29.9088 49.7942L28.5518 46.7409C28.2128 45.893 28.5522 44.8752 29.4002 44.5359Z" fill="black"/>
<path d="M111.8 58.2V71.4L182 70.8L195.2 69.6L207.2 65.4L209 58.2L206 52.2L202.4 49.8L195.2 48H186.8L181.4 46.2L180.2 51L176 54L171.8 55.2H167.6L135.8 40.8L131.6 42.6L122 40.8L116 38.4L111.8 58.2Z" fill="gray"/>
<path d="M146.6 35.4L137 41.4L147.8 46.8L166.4 55.2H174.2L179.6 50.4L181.4 46.2L150.2 30L146.6 35.4Z" fill="gray"/>
<path d="M181.4 46.2L180.2 51L176 54L171.8 55.2H167.6L135.8 40.8L131.6 42.6L122 40.8L116 38.4L111.8 58.2V71.4L182 70.8L195.2 69.6L207.2 65.4L209 58.2L206 52.2L202.4 49.8L195.2 48H186.8L181.4 46.2ZM181.4 46.2L150.2 30L146.6 35.4L137 41.4L147.8 46.8L166.4 55.2H174.2L179.6 50.4L181.4 46.2Z" stroke="black"/>
<path d="M121.874 48.7765C122.811 48.7765 123.57 48.017 123.57 47.0803C123.57 46.1435 122.811 45.3841 121.874 45.3841C120.937 45.3841 120.178 46.1435 120.178 47.0803C120.178 48.017 120.937 48.7765 121.874 48.7765Z" fill="black"/>
<path d="M120.178 55.5616C121.114 55.5616 121.874 54.8022 121.874 53.8654C121.874 52.9286 121.114 52.1692 120.178 52.1692C119.241 52.1692 118.481 52.9286 118.481 53.8654C118.481 54.8022 119.241 55.5616 120.178 55.5616Z" fill="black"/>
<path d="M208.892 51.4906C206.347 47.7589 199.053 46.0625 187.01 46.4018L151.049 29.4393C150.201 29.1 149.353 29.4393 148.844 30.1178C148.505 30.966 137.31 47.9285 116.955 36.0547C116.446 35.8852 115.937 35.8852 115.428 36.0547C114.919 36.2243 114.58 36.7332 114.41 37.242C113.053 44.7056 110.678 57.0882 110.17 58.4453C110 58.9542 110 59.4631 110.17 59.9719C110.509 60.3113 111.018 60.6504 111.527 60.6504C116.446 60.9897 142.229 62.8554 166.146 62.8554C186.332 62.8554 205.33 61.4984 209.231 56.7489C209.401 56.5794 209.57 56.4096 209.57 56.24C209.74 55.9009 210.418 53.8654 208.892 51.4906ZM113.901 57.4276C114.75 53.3565 116.446 44.5361 117.294 40.2953C133.748 48.6069 145.961 40.1257 150.88 33.3406L185.823 49.7944C186.162 49.964 186.332 49.964 186.671 49.964C201.428 49.4551 205.16 52.3388 206.008 53.5261C206.517 54.035 206.517 54.5439 206.517 54.8832C199.902 61.1593 147.318 59.8022 113.901 57.4276Z" fill="black"/>
<path d="M211.436 57.0882L209.74 53.1868C209.401 52.5084 208.722 52.169 208.044 52.169C207.026 52.169 206.348 52.8475 206.348 53.8652C206.348 54.2045 206.347 54.5437 206.517 54.7134L208.044 58.2756C208.722 60.1415 208.213 62.3466 206.687 63.3643C203.633 65.3998 196 69.1315 179.038 69.1315C155.629 69.1315 121.365 69.1315 113.393 69.1315V58.954C113.393 57.9362 112.714 57.2578 111.696 57.2578C110.679 57.2578 110 57.9364 110 58.9542V70.8279C110 71.3368 110.17 71.6761 110.509 72.0152C110.848 72.3544 111.187 72.5241 111.696 72.5241C111.696 72.5241 152.406 72.5241 179.377 72.6937C196.339 72.6937 204.821 69.1315 208.892 66.2478C211.606 64.2125 212.793 60.4808 211.436 57.0882Z" fill="black"/>
<path d="M186.84 46.5714C185.992 46.4018 185.144 47.0803 184.974 47.9285L182.939 60.3111C182.939 60.3111 182.939 60.4806 182.939 60.6504C182.939 61.6681 183.617 62.3466 184.635 62.3466C185.483 62.3466 186.162 61.6681 186.331 60.82L188.197 48.4373C188.367 47.5891 187.689 46.7412 186.84 46.5714Z" fill="black"/>
<path d="M158.343 30.2873C157.495 29.7784 156.477 30.1178 156.138 30.9658L151.049 39.4471C150.541 40.2953 150.71 41.3131 151.558 41.8219C151.728 41.9915 152.067 41.9915 152.407 41.9915C152.915 41.9915 153.594 41.6522 153.933 41.1433L159.022 32.662C159.361 31.814 159.192 30.7962 158.343 30.2873Z" fill="black"/>
<path d="M165.128 33.6799C164.28 33.171 163.262 33.5103 162.923 34.3583L157.834 42.8397C157.326 43.6879 157.495 44.7056 158.343 45.2145C158.513 45.3841 158.852 45.3841 159.191 45.3841C159.7 45.3841 160.379 45.0448 160.718 44.5359L165.807 36.0545C166.146 35.2065 165.976 34.1888 165.128 33.6799Z" fill="black"/>
<path d="M171.913 37.0725C171.065 36.5636 170.047 36.9029 169.708 37.7509L164.62 46.2323C164.111 47.0805 164.28 48.0982 165.128 48.6071C165.298 48.7767 165.637 48.7767 165.977 48.7767C166.486 48.7767 167.164 48.4373 167.503 47.9285L172.592 39.4471C172.931 38.5991 172.761 37.5814 171.913 37.0725Z" fill="black"/>
<path d="M178.698 40.4649C177.85 39.956 176.832 40.2953 176.493 41.1433L171.405 49.6246C170.896 50.4728 171.065 51.4906 171.913 51.9995C172.083 52.169 172.422 52.169 172.762 52.169C173.27 52.169 173.949 51.8297 174.288 51.3208L179.377 42.8395C179.716 41.9915 179.547 40.9737 178.698 40.4649Z" fill="black"/>
<path d="M116.276 35.885C114.919 35.7154 113.392 34.6977 113.392 32.8317C113.392 31.814 112.714 31.1355 111.696 31.1355C110.678 31.1355 110 31.814 110 32.8317C110 36.0545 112.375 38.5989 115.598 39.2775C115.767 39.2775 115.767 39.2775 115.937 39.2775C116.785 39.2775 117.464 38.5991 117.633 37.9205C117.803 36.9027 117.124 36.0547 116.276 35.885Z" fill="black"/>
<path d="M182.6 44.5359C181.752 44.1966 180.734 44.5359 180.395 45.3841L179.038 48.4373C177.002 53.0172 171.744 55.2223 167.164 53.1868L136.462 39.956C135.614 39.6167 134.596 39.956 134.257 40.8042C133.918 41.6524 134.257 42.6701 135.105 43.0092L165.807 56.24C167.334 56.9185 169.03 57.2578 170.726 57.2578C175.476 57.2578 180.056 54.5439 182.091 49.7942L183.448 46.7409C183.787 45.893 183.448 44.8752 182.6 44.5359Z" fill="black"/>
</svg>
