<svg width="204" height="204" viewBox="0 0 204 204" fill="none" xmlns="http://www.w3.org/2000/svg">
<path d="M45 182L43 192L31 189.5V182L27.5 171L37 59.5L43 46L59 37L60.5 21.5L63.5 13.5L71.5 8.5L89 2.5H113.5L141 13.5L144 34L146 37L158 43.5L165 54.5L167.5 72L177 171L174 180V189.5L160.5 192L158 182L155.5 173.5L150 127.5L146 115.5V176L143 182V197L116.5 202.5H93.5L62 197V185L57 176V103.5L48.5 177.5L45 182Z" fill="gray" stroke="black"/>
<path d="M178.525 169.504L168.699 60.2912C168.037 51.554 163.031 43.8696 155.305 39.7344L146.702 35.1285C146.65 32.5316 146.309 25.2028 144.215 16.616C144.21 16.5947 144.206 16.5729 144.201 16.5516H144.2C144.186 16.486 144.17 16.4199 144.15 16.3556C143.594 14.2904 142.243 12.4851 140.138 10.9889C131.379 4.76853 122.109 2.01695 114.876 0.834169C108.082 -0.277329 95.9192 -0.277329 89.1245 0.834169C81.8922 2.01739 72.6225 4.76853 63.8644 10.9885C61.7831 12.4664 60.4403 14.2469 59.8713 16.2821C59.8335 16.3934 59.8048 16.5068 59.7848 16.6225C57.6927 25.2054 57.3514 32.5308 57.2989 35.128L48.6981 39.7344C40.9741 43.8683 35.9661 51.5527 35.3032 60.2604L25.4758 169.534C25.2515 172.471 25.7974 175.436 27.0541 178.111L28.5603 181.312L28.1595 189.73C28.1091 190.788 28.8272 191.727 29.86 191.956L42.1635 194.682C42.7351 194.808 43.3345 194.699 43.8253 194.378C44.3156 194.056 44.6551 193.551 44.7672 192.975L46.4191 184.479C47.6162 183.186 48.6012 181.719 49.3502 180.112C50.1934 178.311 50.7112 176.39 50.8881 174.402L55.9731 128.248C56.083 144.552 55.9974 162.871 55.2932 174.41C55.0576 178.269 56.8064 181.879 59.7253 184.145V197.427C59.7253 198.444 60.4312 199.326 61.4245 199.548C74.6977 202.515 88.3495 203.999 102.001 203.999C115.652 203.999 129.303 202.515 142.574 199.548C143.567 199.326 144.273 198.444 144.273 197.427V184.147C147.192 181.88 148.942 178.27 148.705 174.411C148.001 162.869 147.915 144.541 148.026 128.235L153.115 174.402C153.451 178.162 155.028 181.713 157.579 184.479L159.232 192.976C159.344 193.551 159.684 194.057 160.174 194.379C160.531 194.613 160.945 194.735 161.365 194.735C161.522 194.735 161.68 194.718 161.836 194.683L174.139 191.957C175.172 191.729 175.89 190.789 175.84 189.732L175.439 181.313L176.944 178.114C178.2 175.451 178.748 172.485 178.525 169.504ZM141.618 26.3151C142.161 30.3343 142.31 33.4975 142.35 35.0424C134.702 40.789 124.531 44.6951 116.27 47.1654C118.915 45.5336 121.737 43.7127 124.519 41.7783C132.834 35.9991 138.512 30.8724 141.618 26.3151ZM81.9635 38.2091C76.0191 34.0774 71.4267 30.2104 68.3586 26.8142C76.5803 21.5458 85.2171 19.3767 91.6544 18.5112C97.6366 17.707 106.399 17.694 112.431 18.5108C118.852 19.3806 127.442 21.5544 135.644 26.8133C132.582 30.2039 127.999 34.0635 122.07 38.1873C113.675 44.0252 104.9 48.8176 102 50.3599C99.1058 48.8198 90.3551 44.0417 81.9635 38.2091ZM64.0222 17.5944C64.0257 17.5801 64.0291 17.5662 64.0317 17.5514C64.0317 17.5514 64.0322 17.5501 64.0322 17.5492C64.0339 17.5418 64.0357 17.5349 64.037 17.5275C64.0383 17.5227 64.0396 17.5184 64.0409 17.514C64.3225 16.4377 65.1098 15.4349 66.3812 14.5321C73.767 9.28711 81.6683 6.71376 88.1304 5.47012C95.9791 3.96001 108.046 3.94567 115.93 5.47012C122.373 6.71593 130.241 9.29146 137.621 14.5321C138.892 15.4349 139.679 16.4386 139.961 17.514C139.962 17.5184 139.963 17.5231 139.965 17.5275C139.97 17.5501 139.974 17.5727 139.98 17.5944C139.98 17.5957 139.98 17.597 139.981 17.5983C140.362 19.165 139.784 21.1193 138.33 23.374C129.134 17.3732 119.571 15.0037 112.534 14.1095C106.95 13.4001 97.0546 13.4001 91.4732 14.1091C84.4369 15.0028 74.8716 17.3723 65.6727 23.3749C64.2174 21.1185 63.6392 19.1619 64.0222 17.5944ZM62.3821 26.313C65.4884 30.8707 71.1671 35.9987 79.4827 41.7783C82.2686 43.7148 85.0946 45.5379 87.7418 47.1715C79.4823 44.7033 69.3093 40.7968 61.6514 35.0415C61.6901 33.4979 61.8374 30.3382 62.3821 26.313ZM32.5886 188.109L32.8094 183.472L41.857 185.168L40.9259 189.956L32.5886 188.109ZM64.0722 195.678V186.243C88.8915 192.749 115.108 192.749 139.926 186.243V195.678C115.077 200.978 88.9259 200.978 64.0722 195.678ZM163.073 189.956L162.142 185.168L171.19 183.472L171.411 188.109L163.073 189.956ZM173.012 176.26L171.748 178.945L160.375 181.077C158.703 179.082 157.672 176.607 157.442 173.997C157.441 173.981 157.439 173.965 157.438 173.949L148.526 93.0998C148.401 91.9626 147.402 91.1145 146.273 91.1667C145.13 91.2154 144.22 92.1417 144.193 93.2854C144.179 93.8474 142.847 149.796 144.367 174.676C144.572 178.04 142.351 181.108 139.086 181.971C114.824 188.38 89.1745 188.38 64.9115 181.971C61.6462 181.108 59.4258 178.04 59.6318 174.676C61.1506 149.796 59.8196 93.8474 59.8057 93.2854C59.7779 92.1417 58.8685 91.2154 57.7257 91.1667C56.5729 91.1154 55.5975 91.9626 55.4723 93.0998L46.5647 173.949C46.5629 173.965 46.5612 173.981 46.5599 173.997C46.429 175.486 46.0435 176.923 45.411 178.273C44.9372 179.29 44.3386 180.229 43.6253 181.078L32.25 178.945L30.9876 176.262C30.05 174.266 29.6427 172.054 29.807 169.894L39.6349 60.6203C40.1874 53.371 44.3421 46.9959 50.7503 43.5666L59.5175 38.8698C66.1395 43.7327 75.0389 47.877 86.0087 51.1993C86.4203 51.3241 86.8259 51.444 87.228 51.5618V112.534C87.228 113.735 88.2008 114.708 89.4014 114.708C90.602 114.708 91.5749 113.735 91.5749 112.534V52.7616C97.1967 54.2178 101.143 54.8776 101.618 54.955C101.742 54.9772 101.87 54.9885 101.999 54.9885C102 54.9885 102.001 54.9885 102.002 54.9885C102.131 54.9885 102.259 54.9772 102.383 54.955C102.859 54.8776 106.805 54.2173 112.426 52.7616V112.535C112.426 113.735 113.399 114.708 114.6 114.708C115.8 114.708 116.773 113.735 116.773 112.535V51.5623C117.175 51.4445 117.581 51.3245 117.993 51.1997C128.962 47.8774 137.86 43.7335 144.483 38.8711L153.254 43.567C159.662 46.9976 163.816 53.3719 164.366 60.6503L174.192 169.861C174.357 172.061 173.949 174.273 173.012 176.26Z" fill="black"/>
</svg>
