<svg width="121" height="139" viewBox="0 0 121 139" fill="none" xmlns="http://www.w3.org/2000/svg">
<path d="M2.99999 84.5V136.5H17.5L20 129L24.5 111L30 129H91L92.5 121L96.5 108.5L102.5 136.5H118L119.5 89.5L112.5 40.5L106.5 20L98 11.5L79 2.00002L75.5 4.00002L57 6.50002L43.5 2.00002H40L17.5 15.5L12 26.5L5.99999 54L2.99999 84.5Z" fill="gray"/>
<path d="M114.378 41.3996C110.294 23.3905 105.565 15.1553 105.565 15.1553C95.9414 6.49668 80.4811 0.421682 79.7241 0.122232C79.1883 -0.0898197 78.5824 -0.0229658 78.105 0.301554C77.9731 0.391389 74.262 4.01612 60.4998 4.01612C46.7018 4.01612 43.0116 0.381291 42.8939 0.301554C42.4165 -0.0229658 41.81 -0.0898197 41.2748 0.122232C40.5182 0.421334 23.9004 6.49668 15.433 15.1543C15.1677 15.4255 10.7052 23.3905 6.62116 41.3996C2.88361 57.8808 -1.15757 86.3717 0.808005 128.515V137.259C0.808005 138.22 1.58727 139 2.54899 139H18.3349C19.1761 139 19.8969 138.398 20.0473 137.57L21.6379 128.837L24.8207 115.407C25.2925 117.308 25.8288 119.136 26.4346 120.877L28.0102 129.9C28.1558 130.733 28.8793 131.342 29.7254 131.342H91.2738C92.12 131.342 92.8435 130.733 92.9891 129.9L94.5647 120.877C95.1705 119.136 95.7064 117.308 96.1786 115.406L99.3607 128.837L100.951 137.57C101.102 138.398 101.823 139 102.664 139H118.451C119.413 139 120.192 138.22 120.192 137.259V128.515C122.158 86.3717 118.116 57.8808 114.378 41.3996ZM60.4991 7.49775C68.7946 7.49775 73.7926 6.31388 76.7115 5.13732C74.7174 10.4115 68.2072 14.29 60.4998 14.29C52.7925 14.29 46.2815 10.4115 44.2881 5.13732C47.2074 6.31388 52.2037 7.49775 60.4991 7.49775ZM64.2471 17.4983L60.4991 21.5085L56.7518 17.4983C57.9663 17.6776 59.2191 17.772 60.4991 17.772C61.7791 17.772 63.0319 17.6776 64.2471 17.4983ZM16.8822 135.518H4.28998V130.22H17.8467L16.8822 135.518ZM24.0066 44.1121C22.4948 60.8172 20.1664 86.566 23.2075 107.112L18.5563 126.738H4.21303C2.44906 86.0364 6.34643 58.4637 9.95759 42.4334C13.0116 28.8743 16.37 21.1029 17.7704 18.2142C20.1556 19.334 24.9875 22.5893 24.9875 30.6006C24.9872 33.2772 24.5547 38.0587 24.0066 44.1121ZM31.1882 127.859L30.1986 122.188H90.8006L89.8104 127.859H31.1882ZM94.3119 106.851C94.3056 106.881 92.7899 115.122 91.6234 118.706H29.3758C28.2094 115.123 26.6937 106.881 26.6867 106.847C23.6515 86.7248 25.9705 61.0425 27.4743 44.4262C28.0301 38.2853 28.4691 33.4346 28.4691 30.6006C28.4691 21.6192 23.3426 17.3371 20.0626 15.5167C25.8298 10.7503 36.0125 6.13177 40.4221 4.24733C41.3817 9.04618 45.0506 13.1434 50.15 15.5331L59.2275 25.2475C59.5701 25.6145 60.0346 25.7997 60.4998 25.7997C60.9257 25.7997 61.3525 25.6444 61.6886 25.3307C61.7178 25.3032 70.8486 15.5327 70.8486 15.5327C75.9483 13.1434 79.6176 9.04548 80.5769 4.24663C84.9857 6.13038 95.1663 10.7464 100.936 15.516C97.6563 17.3364 92.5305 21.6189 92.5305 30.6003C92.5305 33.4343 92.9692 38.2843 93.5246 44.4251C95.0292 61.0428 97.3485 86.7279 94.3119 106.851ZM116.71 135.518H104.117L103.152 130.22H116.71L116.71 135.518ZM116.786 126.738H102.442L97.7921 107.111C100.834 86.5657 98.5049 60.8165 96.993 44.1121C96.4456 38.0587 96.0132 33.2776 96.0132 30.601C96.0132 22.5872 100.848 19.3323 103.228 18.2146C106.418 24.8188 119.81 57.0281 116.786 126.738Z" fill="black"/>
</svg>
