<svg width="145" height="145" viewBox="0 0 145 145" fill="none" xmlns="http://www.w3.org/2000/svg">
<g clip-path="url(#clip0_16_16)">
<path d="M38 60V137L79 141.5L108 137V60L117 71L133.5 64.5L143 56.5L118.5 18.5L84 3.5L71.5 6L61 3.5L27 18.5L1.5 56.5L8 63L29 71L38 60Z" fill="gray" stroke="black"/>
<path d="M144.737 55.7583L120.09 18.1528C119.922 17.8968 119.684 17.6938 119.405 17.5684C119.405 17.5684 84.5634 1.63503 82.9371 2.19151L82.7428 2.25745C76.1377 4.49688 68.8623 4.49688 62.2534 2.25616L62.0626 2.19151C60.4369 1.63503 25.5942 17.5684 25.5942 17.5684C25.315 17.6941 25.0776 17.8968 24.9097 18.1528L0.263129 55.7583C-0.150531 56.3894 -0.0697935 57.2229 0.456771 57.7626C0.874936 58.1917 10.9096 68.3155 29.2049 72.4382C29.8601 72.584 30.5385 72.3105 30.9056 71.7479L35.6076 64.5378L36.0811 137.235C36.086 137.979 36.5997 138.622 37.3237 138.791C48.83 141.479 60.665 142.823 72.5 142.823C84.335 142.823 96.17 141.479 107.676 138.791C108.4 138.622 108.914 137.979 108.919 137.235L109.392 64.5378L114.094 71.7479C114.461 72.3102 115.14 72.5859 115.795 72.4382C134.09 68.3155 144.125 58.1917 144.543 57.7626C145.07 57.2229 145.15 56.3894 144.737 55.7583ZM119.755 23.5108L138.32 51.8359C133.523 55.3369 124.818 60.8683 113.344 64.709L109.744 59.1886C115.251 50.4299 118.507 31.9239 119.755 23.5108ZM56.2707 7.86406C57.6561 12.1866 61.5962 17.34 72.5 17.34C83.4035 17.34 87.3439 12.1866 88.7293 7.86406C88.7852 7.68972 88.828 7.51345 88.8624 7.33685L90.6567 8.1452C90.629 8.24749 90.6001 8.34978 90.5673 8.4511C87.5481 17.8624 77.9529 19.2677 72.5016 19.2677C67.0491 19.2677 57.4516 17.8627 54.4324 8.45014C54.3999 8.34913 54.371 8.24749 54.3433 8.14552L56.1376 7.33717C56.172 7.51313 56.2148 7.6894 56.2707 7.86406ZM59.6649 5.541C59.7997 5.4088 60.1166 5.15725 60.574 5.15725C60.711 5.15725 60.8606 5.17977 61.0217 5.23478L61.2244 5.30393C68.4956 7.76885 76.5044 7.76885 83.7724 5.30522L83.9789 5.23478C84.6773 4.99642 85.1601 5.36891 85.3354 5.541C85.5094 5.71148 85.8903 6.18401 85.6664 6.88202C84.1266 11.687 79.6966 14.1233 72.5003 14.1233C65.3037 14.1233 60.8738 11.687 59.3339 6.88202C59.1101 6.18401 59.4909 5.71148 59.6649 5.541ZM35.2564 59.1882L31.656 64.7086C20.1816 60.868 11.4773 55.3366 6.68002 51.8356L25.2446 23.5105C26.4933 31.9239 29.7485 50.4299 35.2564 59.1882ZM28.8276 69.046C15.1855 65.7206 6.45196 58.817 3.69786 56.3865L4.91408 54.5305C10.4776 58.5864 18.9116 63.7276 29.8428 67.4891L28.8276 69.046ZM105.711 135.942C83.9548 140.828 61.0459 140.828 39.2894 135.942L38.7895 59.1709C38.7889 59.0695 38.7619 58.9463 38.7249 58.8235C38.6332 58.5217 38.4843 58.2432 38.3071 57.982C32.1829 48.9516 28.7411 25.5099 28.0035 20.0111L51.385 9.47785C52.9631 14.3569 57.8019 22.484 72.5019 22.484C87.1994 22.484 92.0376 14.3562 93.6154 9.47785L116.997 20.0111C116.259 25.5099 112.817 48.9516 106.693 57.982C106.516 58.2429 106.367 58.5214 106.275 58.8235C106.238 58.9463 106.211 59.0695 106.211 59.1709L105.711 135.942ZM116.172 69.046L115.157 67.4891C126.088 63.7279 134.522 58.5867 140.086 54.5305L141.302 56.3862C138.546 58.818 129.814 65.7209 116.172 69.046Z" fill="black"/>
</g>
<defs>
<clipPath id="clip0_16_16">
<rect width="145" height="145" fill="gray"/>
</clipPath>
</defs>
</svg>
